<?xml version="1.0" encoding="UTF-8" standalone="no"?>
<!-- Created with Inkscape (http://www.inkscape.org/) -->

<svg
   width="210mm"
   height="297mm"
   viewBox="0 0 210 297"
   version="1.1"
   id="svg1"
   inkscape:version="1.3 (0e150ed6c4, 2023-07-21)"
   sodipodi:docname="drawing.svg"
   xmlns:inkscape="http://www.inkscape.org/namespaces/inkscape"
   xmlns:sodipodi="http://sodipodi.sourceforge.net/DTD/sodipodi-0.dtd"
   xmlns="http://www.w3.org/2000/svg"
   xmlns:svg="http://www.w3.org/2000/svg"
   xmlns:ns20="http://www.iki.fi/pav/software/textext/">
  <sodipodi:namedview
     id="namedview1"
     pagecolor="#ffffff"
     bordercolor="#cccccc"
     borderopacity="1"
     inkscape:showpageshadow="0"
     inkscape:pageopacity="1"
     inkscape:pagecheckerboard="0"
     inkscape:deskcolor="#d1d1d1"
     inkscape:document-units="mm"
     inkscape:zoom="1.4485269"
     inkscape:cx="396.26464"
     inkscape:cy="444.24441"
     inkscape:window-width="2560"
     inkscape:window-height="1009"
     inkscape:window-x="-8"
     inkscape:window-y="-8"
     inkscape:window-maximized="1"
     inkscape:current-layer="layer1" />
  <defs
     id="defs1" />
  <g
     inkscape:label="Layer 1"
     inkscape:groupmode="layer"
     id="layer1">
    <g
       transform="matrix(0.743658 0 0 0.743658 48.2622 106.577)"
       ns20:version="1.10.2"
       ns20:texconverter="pdflatex"
       ns20:pdfconverter="inkscape"
       ns20:text="\\sffamily log$\\mathsf{\\left(\\frac{I-I_{\\text{min}}}{I_{\\text{max}}-I_{\\text{min}}}\\right)}$"
       ns20:preamble="C:\Users\Jojo\AppData\Roaming\inkscape\extensions\textext\default_packages.tex"
       ns20:scale="2.108"
       ns20:alignment="middle center"
       ns20:stroke-to-path="0"
       id="g8726"
       ns20:jacobian_sqrt="0.743658">
      <defs
         id="id-fa7491e8-fa7b-4210-b91e-6406555723c8">
        <g
           id="id-abca16ce-19f1-41bc-b825-8e74dd05ee85">
          <g
             id="id-badeea57-7192-4ed0-9b47-26e7db38fd58" />
          <g
             id="id-913cd3a5-d24e-4690-ae8e-d3f641a6bf9b">
            <path
               d="m 1.5625,-6.921875 h -0.75 V 0 h 0.75 z m 0,0"
               id="id-4b03fd14-dc86-464d-a1b7-f6e8c6d3e100" />
          </g>
          <g
             id="id-90dbb73b-0226-4780-82ef-aea11efeb675">
            <path
               d="m 4.671875,-2.1875 c 0,-1.34375 -1,-2.40625 -2.171875,-2.40625 -1.234375,0 -2.203125,1.09375 -2.203125,2.40625 0,1.3125 1.015625,2.296875 2.1875,2.296875 1.1875,0 2.1875,-1 2.1875,-2.296875 z m -2.1875,1.65625 c -0.6875,0 -1.40625,-0.5625 -1.40625,-1.765625 0,-1.203125 0.75,-1.6875 1.40625,-1.6875 0.703125,0 1.40625,0.515625 1.40625,1.6875 0,1.1875 -0.671875,1.765625 -1.40625,1.765625 z m 0,0"
               id="id-bfee27f0-181b-48bf-859d-32a5be78f135" />
          </g>
          <g
             id="id-33a59227-3772-4a2a-ba4b-e74f12938c70">
            <path
               d="M 3.515625,-3.890625 C 3.734375,-3.890625 4,-3.9375 4.25,-3.9375 c 0.171875,0 0.5625,0.03125 0.578125,0.03125 l -0.109375,-0.625 c -0.6875,0 -1.265625,0.1875 -1.5625,0.3125 -0.21875,-0.171875 -0.546875,-0.3125 -0.953125,-0.3125 -0.859375,0 -1.578125,0.71875 -1.578125,1.625 0,0.359375 0.125,0.71875 0.328125,0.984375 C 0.65625,-1.515625 0.65625,-1.125 0.65625,-1.078125 0.65625,-0.8125 0.75,-0.53125 0.921875,-0.3125 0.40625,-0.015625 0.28125,0.453125 0.28125,0.703125 c 0,0.75 0.984375,1.34375 2.203125,1.34375 1.21875,0 2.203125,-0.578125 2.203125,-1.34375 C 4.6875,-0.6875 3.03125,-0.6875 2.640625,-0.6875 h -0.875 c -0.125,0 -0.578125,0 -0.578125,-0.53125 0,-0.109375 0.03125,-0.265625 0.109375,-0.359375 0.203125,0.15625 0.53125,0.296875 0.90625,0.296875 0.890625,0 1.59375,-0.75 1.59375,-1.625 0,-0.484375 -0.21875,-0.859375 -0.328125,-1 z m -1.3125,2.03125 c -0.375,0 -0.890625,-0.21875 -0.890625,-1.046875 0,-0.828125 0.515625,-1.0625 0.890625,-1.0625 0.421875,0 0.890625,0.28125 0.890625,1.0625 0,0.765625 -0.46875,1.046875 -0.890625,1.046875 z M 2.65625,0.03125 c 0.21875,0 1.34375,0 1.34375,0.6875 0,0.4375 -0.6875,0.765625 -1.5,0.765625 -0.8125,0 -1.515625,-0.3125 -1.515625,-0.78125 0,-0.03125 0,-0.671875 0.765625,-0.671875 z m 0,0"
               id="id-d5682423-987e-4cbc-ab43-450b1e9ea25f" />
          </g>
          <g
             id="id-2c3ef4b2-6813-47ff-b81a-6036c651c3b7" />
          <g
             id="id-3842d97c-973b-44cb-8985-4677f70f962e">
            <path
               d="M 5.140625,17.421875 C 5.15625,17.4375 5.25,17.53125 5.25,17.53125 h 0.21875 c 0.03125,0 0.109375,0 0.109375,-0.09375 0,-0.04687 -0.015625,-0.0625 -0.03125,-0.09375 -0.359375,-0.359375 -0.90625,-0.90625 -1.515625,-2 -1.078125,-1.921875 -1.484375,-4.375 -1.484375,-6.765625 0,-4.4375 1.265625,-7.03125 3,-8.796875 0.03125,-0.03125 0.03125,-0.0625 0.03125,-0.078125 0,-0.109375 -0.0625,-0.109375 -0.1875,-0.109375 -0.125,0 -0.140625,0 -0.234375,0.09375 C 4.203125,0.5 3.140625,1.890625 2.453125,3.984375 2.03125,5.296875 1.796875,6.90625 1.796875,8.5625 c 0,2.359375 0.421875,5.03125 1.984375,7.34375 0.28125,0.390625 0.640625,0.796875 0.640625,0.8125 C 4.53125,16.84375 4.671875,17 4.75,17.0625 Z m 0,0"
               id="id-a893f88b-1c86-4b29-bee2-4d487f1b6ac6" />
          </g>
          <g
             id="id-9f50fc5a-f52f-4cb9-9474-3dc15ac8ac5e">
            <path
               d="m 4.140625,8.5625 c 0,-2.859375 -0.65625,-5.90625 -2.625,-8.140625 C 1.375,0.265625 1,-0.125 0.765625,-0.34375 c -0.0625,-0.0625 -0.09375,-0.0625 -0.21875,-0.0625 -0.09375,0 -0.1875,0 -0.1875,0.109375 0,0.03125 0.046875,0.078125 0.0625,0.09375 0.328125,0.359375 0.875,0.90625 1.484375,2 1.078125,1.90625 1.484375,4.375 1.484375,6.765625 0,4.328125 -1.203125,6.96875 -2.984375,8.796875 C 0.375,17.375 0.359375,17.40625 0.359375,17.4375 c 0,0.09375 0.09375,0.09375 0.1875,0.09375 0.125,0 0.15625,0 0.234375,-0.07813 0.953125,-0.8125 2.015625,-2.203125 2.703125,-4.296875 0.4375,-1.375 0.65625,-2.984375 0.65625,-4.59375 z m 0,0"
               id="id-902185a6-d163-4825-9465-2da5f8c759df" />
          </g>
          <g
             id="id-b173c552-7d44-4869-94b7-d19a6b5f0a98" />
          <g
             id="id-7ab25db4-7231-4e7e-9bfe-1f48b93c620a">
            <path
               d="M 1.375,-4.84375 H 0.671875 V 0 H 1.375 Z m 0,0"
               id="id-cba5dc73-4df8-48f8-83ef-14672b302f5b" />
          </g>
          <g
             id="id-dabb2714-6db9-4faa-88a8-be21e43c8318" />
          <g
             id="id-8ce472e4-d260-44f0-aa0e-885cf12d3087">
            <path
               d="m 5.1875,-1.578125 c 0.109375,0 0.28125,0 0.28125,-0.15625 0,-0.1875 -0.171875,-0.1875 -0.28125,-0.1875 H 1.03125 c -0.109375,0 -0.28125,0 -0.28125,0.171875 0,0.171875 0.15625,0.171875 0.28125,0.171875 z m 0,0"
               id="id-eba09529-04de-4f58-a24f-e894253618ed" />
          </g>
          <g
             id="id-6df0a1f2-523c-4655-b23d-c08f4eae45d6" />
          <g
             id="id-5ce79242-337f-4724-8631-11a72038d26b">
            <path
               d="m 3.78125,-1.46875 c 0,-0.390625 -0.109375,-0.796875 -0.71875,-0.796875 -0.421875,0 -0.6875,0.25 -0.796875,0.40625 C 2.21875,-2 2.09375,-2.265625 1.59375,-2.265625 c -0.28125,0 -0.5625,0.125 -0.78125,0.375 V -2.25 H 0.40625 V 0 h 0.4375 v -1.21875 c 0,-0.328125 0.140625,-0.71875 0.53125,-0.71875 0.515625,0 0.515625,0.359375 0.515625,0.5 V 0 H 2.3125 v -1.21875 c 0,-0.328125 0.140625,-0.71875 0.53125,-0.71875 0.515625,0 0.515625,0.359375 0.515625,0.5 V 0 H 3.78125 Z m 0,0"
               id="id-ac9c21fd-9cba-4ad8-9700-231fb3a02752" />
          </g>
          <g
             id="id-bfe35329-a6b4-4e8f-b5be-40348b2508dd">
            <path
               d="m 0.875,-3.421875 h -0.5 v 0.5 h 0.5 z M 0.84375,-2.21875 H 0.421875 V 0 H 0.84375 Z m 0,0"
               id="id-5e730ee5-26fc-4c5d-a2fa-73095e0983b0" />
          </g>
          <g
             id="id-0ddb1a20-20c2-486c-8fa6-520dac1a146f">
            <path
               d="m 2.3125,-1.46875 c 0,-0.390625 -0.109375,-0.796875 -0.71875,-0.796875 -0.28125,0 -0.5625,0.125 -0.78125,0.375 V -2.25 H 0.40625 V 0 h 0.4375 v -1.21875 c 0,-0.328125 0.140625,-0.71875 0.53125,-0.71875 0.515625,0 0.515625,0.359375 0.515625,0.5 V 0 H 2.3125 Z m 0,0"
               id="id-b736a7ca-52b8-437e-8c27-add902247ca4" />
          </g>
          <g
             id="id-43e1556c-beeb-4ebe-a88a-152a78f0031b">
            <path
               d="m 2.125,-1.4375 c 0,-0.5 -0.390625,-0.84375 -0.890625,-0.84375 -0.3125,0 -0.546875,0.0625 -0.828125,0.203125 l 0.03125,0.375 C 0.609375,-1.8125 0.84375,-1.96875 1.234375,-1.96875 c 0.21875,0 0.453125,0.171875 0.453125,0.53125 v 0.203125 c -0.734375,0.03125 -1.46875,0.1875 -1.46875,0.640625 0,0.25 0.171875,0.640625 0.609375,0.640625 0.21875,0 0.609375,-0.046875 0.875,-0.234375 V 0 H 2.125 Z m -0.4375,0.734375 c 0,0.09375 0,0.21875 -0.171875,0.328125 -0.15625,0.09375 -0.359375,0.09375 -0.40625,0.09375 -0.28125,0 -0.484375,-0.125 -0.484375,-0.3125 0,-0.3125 0.84375,-0.34375 1.0625,-0.359375 z m 0,0"
               id="id-f6b03381-0c62-4602-9d33-8b603286f970" />
          </g>
          <g
             id="id-68855e75-6766-4166-9f4b-45cd0f8e085f">
            <path
               d="M 1.375,-1.140625 2.34375,-2.21875 H 1.90625 L 1.203125,-1.390625 0.484375,-2.21875 H 0.03125 l 1,1.078125 L 0,0 H 0.4375 L 1.203125,-0.9375 1.984375,0 H 2.4375 Z m 0,0"
               id="id-f207f558-763c-4bb1-9fd8-5c9caf9c65b9" />
          </g>
        </g>
      </defs>
      <g
         fill="#000000"
         fill-opacity="1"
         id="id-c6e63a4e-d9f8-4e4f-9928-dc77dcd37fb4"
         transform="translate(-149.525, -124.794)">
        <g
           transform="translate(148.712, 136.259)"
           id="g6831">
          <path
             d="m 1.5625,-6.921875 h -0.75 V 0 h 0.75 z m 0,0"
             id="id-ed44f0d9-f69b-4788-9008-60e151c33774" />
        </g>
        <g
           transform="translate(151.092, 136.259)"
           id="g3215">
          <path
             d="m 4.671875,-2.1875 c 0,-1.34375 -1,-2.40625 -2.171875,-2.40625 -1.234375,0 -2.203125,1.09375 -2.203125,2.40625 0,1.3125 1.015625,2.296875 2.1875,2.296875 1.1875,0 2.1875,-1 2.1875,-2.296875 z m -2.1875,1.65625 c -0.6875,0 -1.40625,-0.5625 -1.40625,-1.765625 0,-1.203125 0.75,-1.6875 1.40625,-1.6875 0.703125,0 1.40625,0.515625 1.40625,1.6875 0,1.1875 -0.671875,1.765625 -1.40625,1.765625 z m 0,0"
             id="id-8303276c-a045-416c-96ce-739cf69be85b" />
        </g>
        <g
           transform="translate(156.073, 136.259)"
           id="g2424">
          <path
             d="M 3.515625,-3.890625 C 3.734375,-3.890625 4,-3.9375 4.25,-3.9375 c 0.171875,0 0.5625,0.03125 0.578125,0.03125 l -0.109375,-0.625 c -0.6875,0 -1.265625,0.1875 -1.5625,0.3125 -0.21875,-0.171875 -0.546875,-0.3125 -0.953125,-0.3125 -0.859375,0 -1.578125,0.71875 -1.578125,1.625 0,0.359375 0.125,0.71875 0.328125,0.984375 C 0.65625,-1.515625 0.65625,-1.125 0.65625,-1.078125 0.65625,-0.8125 0.75,-0.53125 0.921875,-0.3125 0.40625,-0.015625 0.28125,0.453125 0.28125,0.703125 c 0,0.75 0.984375,1.34375 2.203125,1.34375 1.21875,0 2.203125,-0.578125 2.203125,-1.34375 C 4.6875,-0.6875 3.03125,-0.6875 2.640625,-0.6875 h -0.875 c -0.125,0 -0.578125,0 -0.578125,-0.53125 0,-0.109375 0.03125,-0.265625 0.109375,-0.359375 0.203125,0.15625 0.53125,0.296875 0.90625,0.296875 0.890625,0 1.59375,-0.75 1.59375,-1.625 0,-0.484375 -0.21875,-0.859375 -0.328125,-1 z m -1.3125,2.03125 c -0.375,0 -0.890625,-0.21875 -0.890625,-1.046875 0,-0.828125 0.515625,-1.0625 0.890625,-1.0625 0.421875,0 0.890625,0.28125 0.890625,1.0625 0,0.765625 -0.46875,1.046875 -0.890625,1.046875 z M 2.65625,0.03125 c 0.21875,0 1.34375,0 1.34375,0.6875 0,0.4375 -0.6875,0.765625 -1.5,0.765625 -0.8125,0 -1.515625,-0.3125 -1.515625,-0.78125 0,-0.03125 0,-0.671875 0.765625,-0.671875 z m 0,0"
             id="id-b17e16fc-3b5d-46c2-a90c-a911440737b0" />
        </g>
      </g>
      <g
         fill="#000000"
         fill-opacity="1"
         id="id-d410446d-52a9-4a85-8d0e-01261d5b7348"
         transform="translate(-149.525, -124.794)">
        <g
           transform="translate(161.055, 125.2)"
           id="g8129">
          <path
             d="M 5.140625,17.421875 C 5.15625,17.4375 5.25,17.53125 5.25,17.53125 h 0.21875 c 0.03125,0 0.109375,0 0.109375,-0.09375 0,-0.04687 -0.015625,-0.0625 -0.03125,-0.09375 -0.359375,-0.359375 -0.90625,-0.90625 -1.515625,-2 -1.078125,-1.921875 -1.484375,-4.375 -1.484375,-6.765625 0,-4.4375 1.265625,-7.03125 3,-8.796875 0.03125,-0.03125 0.03125,-0.0625 0.03125,-0.078125 0,-0.109375 -0.0625,-0.109375 -0.1875,-0.109375 -0.125,0 -0.140625,0 -0.234375,0.09375 C 4.203125,0.5 3.140625,1.890625 2.453125,3.984375 2.03125,5.296875 1.796875,6.90625 1.796875,8.5625 c 0,2.359375 0.421875,5.03125 1.984375,7.34375 0.28125,0.390625 0.640625,0.796875 0.640625,0.8125 C 4.53125,16.84375 4.671875,17 4.75,17.0625 Z m 0,0"
             id="id-3305da62-842c-4daa-a614-90054257df77" />
        </g>
      </g>
      <g
         fill="#000000"
         fill-opacity="1"
         id="id-26714996-a5fe-4cee-ae16-77f193a92f1b"
         transform="translate(-149.525, -124.794)">
        <g
           transform="translate(173.042, 132.159)"
           id="g2835">
          <path
             d="M 1.375,-4.84375 H 0.671875 V 0 H 1.375 Z m 0,0"
             id="id-4be996cb-6e35-4241-8823-29cf65ac1eec" />
        </g>
      </g>
      <g
         fill="#000000"
         fill-opacity="1"
         id="id-2da45091-9299-411d-8694-5d71b0ce08d6"
         transform="translate(-149.525, -124.794)">
        <g
           transform="translate(175.1, 132.159)"
           id="g4891">
          <path
             d="m 5.1875,-1.578125 c 0.109375,0 0.28125,0 0.28125,-0.15625 0,-0.1875 -0.171875,-0.1875 -0.28125,-0.1875 H 1.03125 c -0.109375,0 -0.28125,0 -0.28125,0.171875 0,0.171875 0.15625,0.171875 0.28125,0.171875 z m 0,0"
             id="id-5417b89c-ef12-4fce-ae0c-780f8ac548a9" />
        </g>
      </g>
      <g
         fill="#000000"
         fill-opacity="1"
         id="id-7a8a3a29-d054-49a3-a7d5-08b3dcb0aabd"
         transform="translate(-149.525, -124.794)">
        <g
           transform="translate(181.327, 132.159)"
           id="g7121">
          <path
             d="M 1.375,-4.84375 H 0.671875 V 0 H 1.375 Z m 0,0"
             id="id-fa5554c4-ecfe-442c-978d-1235c1be3da8" />
        </g>
      </g>
      <g
         fill="#000000"
         fill-opacity="1"
         id="id-48565cab-fb67-46fa-b921-fba65b190b7d"
         transform="translate(-149.525, -124.794)">
        <g
           transform="translate(183.385, 133.171)"
           id="g835">
          <path
             d="m 3.78125,-1.46875 c 0,-0.390625 -0.109375,-0.796875 -0.71875,-0.796875 -0.421875,0 -0.6875,0.25 -0.796875,0.40625 C 2.21875,-2 2.09375,-2.265625 1.59375,-2.265625 c -0.28125,0 -0.5625,0.125 -0.78125,0.375 V -2.25 H 0.40625 V 0 h 0.4375 v -1.21875 c 0,-0.328125 0.140625,-0.71875 0.53125,-0.71875 0.515625,0 0.515625,0.359375 0.515625,0.5 V 0 H 2.3125 v -1.21875 c 0,-0.328125 0.140625,-0.71875 0.53125,-0.71875 0.515625,0 0.515625,0.359375 0.515625,0.5 V 0 H 3.78125 Z m 0,0"
             id="id-460ef715-1bed-4b90-827e-6d472f0bc40b" />
        </g>
        <g
           transform="translate(187.588, 133.171)"
           id="g8335">
          <path
             d="m 0.875,-3.421875 h -0.5 v 0.5 h 0.5 z M 0.84375,-2.21875 H 0.421875 V 0 H 0.84375 Z m 0,0"
             id="id-f84061ef-802e-4dff-9b75-d71074fa1a63" />
        </g>
        <g
           transform="translate(188.851, 133.171)"
           id="g5100">
          <path
             d="m 2.3125,-1.46875 c 0,-0.390625 -0.109375,-0.796875 -0.71875,-0.796875 -0.28125,0 -0.5625,0.125 -0.78125,0.375 V -2.25 H 0.40625 V 0 h 0.4375 v -1.21875 c 0,-0.328125 0.140625,-0.71875 0.53125,-0.71875 0.515625,0 0.515625,0.359375 0.515625,0.5 V 0 H 2.3125 Z m 0,0"
             id="id-7ac286ca-e5ab-4f32-a71f-d7ece12b0b4d" />
        </g>
      </g>
      <path
         fill="none"
         stroke-width="0.398"
         stroke-linecap="butt"
         stroke-linejoin="miter"
         stroke="#000000"
         stroke-opacity="1"
         stroke-miterlimit="10"
         d="M 18.674713,8.9757843 H 47.397369"
         id="id-064ae087-7837-47c4-a5b7-c363439cc001" />
      <g
         fill="#000000"
         fill-opacity="1"
         id="id-9a1b5f85-f85f-4fb4-876f-8707107c78b1"
         transform="translate(-149.525, -124.794)">
        <g
           transform="translate(168.2, 139.695)"
           id="g7077">
          <path
             d="M 1.375,-4.84375 H 0.671875 V 0 H 1.375 Z m 0,0"
             id="id-e2174293-3017-4afa-a680-384548691833" />
        </g>
      </g>
      <g
         fill="#000000"
         fill-opacity="1"
         id="id-e598e48b-1e4c-4bff-8b2d-4c2f6fff3e39"
         transform="translate(-149.525, -124.794)">
        <g
           transform="translate(170.259, 140.691)"
           id="g4188">
          <path
             d="m 3.78125,-1.46875 c 0,-0.390625 -0.109375,-0.796875 -0.71875,-0.796875 -0.421875,0 -0.6875,0.25 -0.796875,0.40625 C 2.21875,-2 2.09375,-2.265625 1.59375,-2.265625 c -0.28125,0 -0.5625,0.125 -0.78125,0.375 V -2.25 H 0.40625 V 0 h 0.4375 v -1.21875 c 0,-0.328125 0.140625,-0.71875 0.53125,-0.71875 0.515625,0 0.515625,0.359375 0.515625,0.5 V 0 H 2.3125 v -1.21875 c 0,-0.328125 0.140625,-0.71875 0.53125,-0.71875 0.515625,0 0.515625,0.359375 0.515625,0.5 V 0 H 3.78125 Z m 0,0"
             id="id-2fd2974e-41dc-4769-a2f9-ce12cb2dddce" />
        </g>
        <g
           transform="translate(174.462, 140.691)"
           id="g7964">
          <path
             d="m 2.125,-1.4375 c 0,-0.5 -0.390625,-0.84375 -0.890625,-0.84375 -0.3125,0 -0.546875,0.0625 -0.828125,0.203125 l 0.03125,0.375 C 0.609375,-1.8125 0.84375,-1.96875 1.234375,-1.96875 c 0.21875,0 0.453125,0.171875 0.453125,0.53125 v 0.203125 c -0.734375,0.03125 -1.46875,0.1875 -1.46875,0.640625 0,0.25 0.171875,0.640625 0.609375,0.640625 0.21875,0 0.609375,-0.046875 0.875,-0.234375 V 0 H 2.125 Z m -0.4375,0.734375 c 0,0.09375 0,0.21875 -0.171875,0.328125 -0.15625,0.09375 -0.359375,0.09375 -0.40625,0.09375 -0.28125,0 -0.484375,-0.125 -0.484375,-0.3125 0,-0.3125 0.84375,-0.34375 1.0625,-0.359375 z m 0,0"
             id="id-5eb71b3d-5d12-46fc-80f3-adc897dfbf42" />
        </g>
        <g
           transform="translate(177.005, 140.691)"
           id="g972">
          <path
             d="M 1.375,-1.140625 2.34375,-2.21875 H 1.90625 L 1.203125,-1.390625 0.484375,-2.21875 H 0.03125 l 1,1.078125 L 0,0 H 0.4375 L 1.203125,-0.9375 1.984375,0 H 2.4375 Z m 0,0"
             id="id-1c046184-22a5-4981-87e4-355ece87ecc6" />
        </g>
      </g>
      <g
         fill="#000000"
         fill-opacity="1"
         id="id-e183fbeb-4880-4851-864c-a14bd843cbc4"
         transform="translate(-149.525, -124.794)">
        <g
           transform="translate(179.941, 139.695)"
           id="g9671">
          <path
             d="m 5.1875,-1.578125 c 0.109375,0 0.28125,0 0.28125,-0.15625 0,-0.1875 -0.171875,-0.1875 -0.28125,-0.1875 H 1.03125 c -0.109375,0 -0.28125,0 -0.28125,0.171875 0,0.171875 0.15625,0.171875 0.28125,0.171875 z m 0,0"
             id="id-0be9f414-86f3-4de4-9c79-6061cf5367e7" />
        </g>
      </g>
      <g
         fill="#000000"
         fill-opacity="1"
         id="id-79039c25-0cc1-4c6f-be3d-b382bee78af5"
         transform="translate(-149.525, -124.794)">
        <g
           transform="translate(186.168, 139.695)"
           id="g7110">
          <path
             d="M 1.375,-4.84375 H 0.671875 V 0 H 1.375 Z m 0,0"
             id="id-281ad8ad-c6ef-440b-a5cd-2fc4f460fb83" />
        </g>
      </g>
      <g
         fill="#000000"
         fill-opacity="1"
         id="id-966aecff-6faa-4987-9f10-2c5afda302de"
         transform="translate(-149.525, -124.794)">
        <g
           transform="translate(188.226, 140.706)"
           id="g5004">
          <path
             d="m 3.78125,-1.46875 c 0,-0.390625 -0.109375,-0.796875 -0.71875,-0.796875 -0.421875,0 -0.6875,0.25 -0.796875,0.40625 C 2.21875,-2 2.09375,-2.265625 1.59375,-2.265625 c -0.28125,0 -0.5625,0.125 -0.78125,0.375 V -2.25 H 0.40625 V 0 h 0.4375 v -1.21875 c 0,-0.328125 0.140625,-0.71875 0.53125,-0.71875 0.515625,0 0.515625,0.359375 0.515625,0.5 V 0 H 2.3125 v -1.21875 c 0,-0.328125 0.140625,-0.71875 0.53125,-0.71875 0.515625,0 0.515625,0.359375 0.515625,0.5 V 0 H 3.78125 Z m 0,0"
             id="id-844b787b-ed63-4fa7-91c9-d046f913882b" />
        </g>
        <g
           transform="translate(192.429, 140.706)"
           id="g9725">
          <path
             d="m 0.875,-3.421875 h -0.5 v 0.5 h 0.5 z M 0.84375,-2.21875 H 0.421875 V 0 H 0.84375 Z m 0,0"
             id="id-59b209d1-15e1-4ad1-aabd-0d0408851cfd" />
        </g>
        <g
           transform="translate(193.692, 140.706)"
           id="g9966">
          <path
             d="m 2.3125,-1.46875 c 0,-0.390625 -0.109375,-0.796875 -0.71875,-0.796875 -0.28125,0 -0.5625,0.125 -0.78125,0.375 V -2.25 H 0.40625 V 0 h 0.4375 v -1.21875 c 0,-0.328125 0.140625,-0.71875 0.53125,-0.71875 0.515625,0 0.515625,0.359375 0.515625,0.5 V 0 H 2.3125 Z m 0,0"
             id="id-b06daf23-da58-495b-aef0-410f2a620a81" />
        </g>
      </g>
      <g
         fill="#000000"
         fill-opacity="1"
         id="id-3fe05e75-df1f-4395-93e6-fd0dc8fe3323"
         transform="translate(-149.525, -124.794)">
        <g
           transform="translate(198.118, 125.2)"
           id="g6137">
          <path
             d="m 4.140625,8.5625 c 0,-2.859375 -0.65625,-5.90625 -2.625,-8.140625 C 1.375,0.265625 1,-0.125 0.765625,-0.34375 c -0.0625,-0.0625 -0.09375,-0.0625 -0.21875,-0.0625 -0.09375,0 -0.1875,0 -0.1875,0.109375 0,0.03125 0.046875,0.078125 0.0625,0.09375 0.328125,0.359375 0.875,0.90625 1.484375,2 1.078125,1.90625 1.484375,4.375 1.484375,6.765625 0,4.328125 -1.203125,6.96875 -2.984375,8.796875 C 0.375,17.375 0.359375,17.40625 0.359375,17.4375 c 0,0.09375 0.09375,0.09375 0.1875,0.09375 0.125,0 0.15625,0 0.234375,-0.07813 0.953125,-0.8125 2.015625,-2.203125 2.703125,-4.296875 0.4375,-1.375 0.65625,-2.984375 0.65625,-4.59375 z m 0,0"
             id="id-91801b41-f550-4746-bc05-952e522ea02b" />
        </g>
      </g>
    </g>
  </g>
</svg>
